<?xml version="1.0" standalone="no"?>
<!DOCTYPE svg PUBLIC "-//W3C//DTD SVG 20010904//EN"
 "http://www.w3.org/TR/2001/REC-SVG-20010904/DTD/svg10.dtd">
<svg version="1.0" xmlns="http://www.w3.org/2000/svg"
 width="700.000000pt" height="700.000000pt" viewBox="0 0 700.000000 700.000000"
 preserveAspectRatio="xMidYMid meet">
<metadata>
Created by potrace 1.11, written by Peter Selinger 2001-2013
</metadata>
<g transform="translate(0.000000,700.000000) scale(0.100000,-0.100000)"
fill="#000000" stroke="none">
<path d="M3282 5979 c-829 -74 -1570 -561 -1969 -1294 -33 -60 -75 -147 -94
-192 -21 -51 -40 -83 -49 -83 -8 0 -197 34 -420 74 -223 41 -407 72 -410 70
-2 -3 76 -85 173 -182 l177 -178 196 -48 196 -49 -7 -31 c-133 -623 -53 -1212
239 -1751 188 -348 472 -661 804 -883 831 -559 1933 -559 2764 0 500 335 872
855 1023 1428 102 390 109 788 20 1206 l-7 31 196 49 196 48 177 178 c97 97
175 179 173 182 -3 2 -187 -29 -410 -70 -223 -40 -412 -74 -420 -74 -9 0 -28
32 -49 83 -202 483 -614 933 -1096 1193 -434 235 -919 336 -1403 293z m-1957
-1614 c501 -91 919 -167 930 -170 13 -3 244 -326 630 -880 336 -480 612 -874
615 -874 3 0 280 394 615 874 386 554 617 877 630 880 11 3 430 79 930 170
501 91 919 167 929 170 11 2 -55 -71 -147 -163 l-167 -167 -698 -174 -698
-175 -694 -1043 c-382 -573 -697 -1042 -700 -1042 -3 0 -318 469 -700 1042
l-694 1043 -698 175 -698 174 -167 167 c-92 92 -158 165 -147 163 10 -3 428
-79 929 -170z"/>
</g>
</svg>
